<svg preserveAspectRatio="none" overflow="visible" style="display: block;" width="24" height="23.9977" viewBox="0 0 24 23.9977" fill="none" xmlns="http://www.w3.org/2000/svg">
<g id="Icon">
<path id="Vector" d="M10.8984 0.242578C11.5969 -0.0808594 12.4031 -0.0808594 13.1016 0.242578L23.3484 4.97695C23.7469 5.15977 24 5.5582 24 5.99883C24 6.43945 23.7469 6.83789 23.3484 7.0207L13.1016 11.7551C12.4031 12.0785 11.5969 12.0785 10.8984 11.7551L0.651563 7.0207C0.253125 6.8332 0 6.43477 0 5.99883C0 5.56289 0.253125 5.15977 0.651563 4.97695L10.8984 0.242578ZM20.8547 15.8238L23.3484 16.977C23.7469 17.1598 24 17.5582 24 17.9988C24 18.4395 23.7469 18.8379 23.3484 19.0207L13.1016 23.7551C12.4031 24.0785 11.5969 24.0785 10.8984 23.7551L0.651563 19.0207C0.253125 18.8332 0 18.4348 0 17.9988C0 17.5629 0.253125 17.1598 0.651563 16.977L3.14531 15.8238L10.2703 19.1145C11.3672 19.6207 12.6328 19.6207 13.7297 19.1145L20.8547 15.8238Z" fill="#F05B28"/>
<path id="Vector_2" d="M13.7297 13.1148L20.8547 9.82422L23.3484 10.9773C23.7469 11.1602 24 11.5586 24 11.9992C24 12.4398 23.7469 12.8383 23.3484 13.0211L13.1016 17.7555C12.4031 18.0789 11.5969 18.0789 10.8984 17.7555L0.651563 13.0211C0.253125 12.8336 0 12.4352 0 11.9992C0 11.5633 0.253125 11.1602 0.651563 10.9773L3.14531 9.82422L10.2703 13.1148C11.3672 13.6211 12.6328 13.6211 13.7297 13.1148Z" fill="#F05B28"/>
</g>
</svg>
