<svg preserveAspectRatio="none" overflow="visible" style="display: block;" width="3.98896" height="3.98896" viewBox="0 0 3.98896 3.98896" fill="none" xmlns="http://www.w3.org/2000/svg">
<g id="grid-2-solid 1" clip-path="url(#clip0_0_523)">
<path id="Vector" d="M0.623219 2.24724H1.37127C1.5754 2.24733 1.74123 2.41323 1.74138 2.61736V3.3654C1.74138 3.56965 1.57549 3.73542 1.37127 3.73552H0.623219C0.418911 3.73552 0.253102 3.56971 0.253102 3.3654V2.61736C0.253253 2.41318 0.419004 2.24724 0.623219 2.24724ZM2.61736 2.24724H3.36541C3.56962 2.24724 3.73537 2.41318 3.73552 2.61736V3.3654C3.73552 3.56971 3.56971 3.73552 3.36541 3.73552H2.61736C2.41318 3.73537 2.24724 3.56962 2.24724 3.3654V2.61736C2.24739 2.41327 2.41327 2.24739 2.61736 2.24724ZM0.623219 0.253098H1.37127C1.57549 0.253193 1.74138 0.418965 1.74138 0.623215V1.37126C1.74129 1.57543 1.57543 1.74128 1.37127 1.74138H0.623219C0.418969 1.74138 0.253197 1.57549 0.253102 1.37126V0.623215C0.253102 0.418907 0.418911 0.253098 0.623219 0.253098ZM2.61736 0.253098H3.36541C3.56971 0.253098 3.73552 0.418907 3.73552 0.623215V1.37126C3.73543 1.57549 3.56966 1.74138 3.36541 1.74138H2.61736C2.41324 1.74123 2.24734 1.5754 2.24724 1.37126V0.623215C2.24724 0.419 2.41318 0.253249 2.61736 0.253098Z" fill="#F05B28" stroke="#F05B28" stroke-width="0.00779093"/>
</g>
<defs>
<clipPath id="clip0_0_523">
<rect width="3.98896" height="3.98896" fill="white"/>
</clipPath>
</defs>
</svg>
